Coordinates
version=1
nRows=21
nColumns=22
inDegrees=yes

Units are S.I. units (second, meters, Newtons, ...)
If the header above contains a line with 'inDegrees', this indicates whether rotational values are in degrees (yes) or radians (no).

endheader
time	pelvis_tilt	pelvis_list	pelvis_rotation	pelvis_tx	pelvis_ty	pelvis_tz	hip_flexion_r	hip_adduction_r	hip_rotation_r	knee_angle_r	ankle_angle_r	subtalar_angle_r	hip_flexion_l	hip_adduction_l	hip_rotation_l	knee_angle_l	ankle_angle_l	subtalar_angle_l	lumbar_extension	lumbar_bending	lumbar_rotation
      1.86000000	     -1.52884851	     -2.90351404	     33.35778962	      0.56553517	      0.93822960	      0.93570311	     24.33729558	     -1.70368227	      1.95073015	    -68.10135294	      8.34176991	      3.62961784	     14.15958171	     10.34657581	      6.50934286	    -24.19883076	      7.60747175	    -18.94807530	     -6.49217118	      2.53884550	     -4.10787078
      1.87000000	     -1.29888194	     -2.89246889	     34.44163180	      0.57117398	      0.93901519	      0.92898175	     25.11206103	     -1.44295240	      2.32581020	    -67.25034504	      8.84282720	      3.25922644	     12.93365323	     10.49091125	      7.56981944	    -23.56577395	      7.78613575	    -19.11198568	     -6.55758665	      2.67483776	     -4.53807185
      1.88000000	     -1.06747162	     -2.87665030	     35.53474422	      0.57676457	      0.93968579	      0.92232158	     25.82841228	     -1.16586122	      2.70731689	    -66.24070490	      9.29028045	      2.98230686	     11.72237140	     10.59908027	      8.65218861	    -22.96525057	      7.97684501	    -19.26461537	     -6.62870774	      2.79501637	     -4.97365413
      1.89000000	     -0.86292308	     -2.85931795	     36.64449023	      0.58228291	      0.94017899	      0.91568906	     26.52239472	     -0.89181346	      3.09649208	    -65.10179956	      9.69633566	      2.81236928	     10.56465507	     10.69170799	      9.76393773	    -22.41896632	      8.19207401	    -19.39943393	     -6.67095621	      2.88989185	     -5.42672839
      1.90000000	     -0.66278668	     -2.82801451	     37.74780937	      0.58774779	      0.94055317	      0.90916058	     27.16722181	     -0.59161510	      3.53189451	    -63.83490134	     10.03925144	      2.68099373	      9.43567472	     10.76112362	     10.90560750	    -21.93031492	      8.41884019	    -19.52315677	     -6.73003498	      2.95177876	     -5.86786364
      1.91000000	     -0.47109562	     -2.79190479	     38.83998421	      0.59320753	      0.94082125	      0.90265534	     27.76067126	     -0.27611259	      3.99236871	    -62.43505763	     10.30604139	      2.57513027	      8.32225013	     10.79377441	     12.01679054	    -21.45493495	      8.63827747	    -19.62512923	     -6.77841489	      2.99687954	     -6.28455849
      1.92000000	     -0.30220894	     -2.75431262	     39.91205986	      0.59862052	      0.94095446	      0.89621308	     28.32473424	      0.05250879	      4.49666888	    -60.91535237	     10.50282514	      2.51692032	      7.25485771	     10.80037527	     13.09164629	    -21.01336357	      8.86725210	    -19.70469270	     -6.81338962	      3.01759147	     -6.67751868
      1.93000000	     -0.14691659	     -2.71459662	     40.95460091	      0.60402415	      0.94097702	      0.88980320	     28.84383038	      0.39950216	      5.05316348	    -59.27861412	     10.62566772	      2.53627068	      6.21506340	     10.77482390	     14.10523640	    -20.58875444	      9.09664246	    -19.75070264	     -6.83840542	      3.02271329	     -7.03179358
      1.94000000	     -0.03746288	     -2.69445900	     41.96358223	      0.60935720	      0.94081239	      0.88350006	     29.37144244	      0.75391570	      5.66204862	    -57.53856468	     10.67319038	      2.65922582	      5.27398782	     10.73696855	     15.09330722	    -20.23026762	      9.36198012	    -19.78958617	     -6.82737666	      2.99997291	     -7.35237948
      1.95000000	      0.06528560	     -2.67449406	     42.93301147	      0.61467150	      0.94055740	      0.87721663	     29.84104219	      1.11261005	      6.31142663	    -55.67776046	     10.66052154	      2.90626101	      4.35522681	     10.66999022	     16.01103781	    -19.88386260	      9.62890187	    -19.79641966	     -6.81542025	      2.97263074	     -7.63397474
      1.96000000	      0.15165574	     -2.65885471	     43.85563907	      0.61996376	      0.94018768	      0.87095748	     30.26309659	      1.46420084	      7.00069174	    -53.70299886	     10.60640898	      3.27445581	      3.47507602	     10.58555096	     16.86915260	    -19.56092185	      9.90624194	    -19.78283741	     -6.79520780	      2.93479831	     -7.87125766
      1.97000000	      0.22485998	     -2.62392011	     44.69485891	      0.62528960	      0.93974120	      0.86474097	     30.61361449	      1.80105131	      7.75484811	    -51.61365150	     10.58226816	      3.90544166	      2.60100770	     10.49807989	     17.62720188	    -19.23439244	     10.13871583	    -19.70955848	     -6.78988676	      2.86476384	     -8.02162154
      1.98000000	      0.25843800	     -2.63899953	     45.53347841	      0.63049238	      0.93906857	      0.85849664	     30.97558997	      2.08893510	      8.43907183	    -49.43081518	     10.45368325	      4.30845854	      1.84027652	     10.40462945	     18.40113560	    -18.98617552	     10.43784341	    -19.74258151	     -6.72234947	      2.81487182	     -8.20115551
      1.99000000	      0.29730574	     -2.62272810	     46.30149212	      0.63573146	      0.93834527	      0.85223459	     31.23613196	      2.33640574	      9.13083307	    -47.14215361	     10.37492078	      4.81193256	      1.05109360	     10.31568820	     19.10463031	    -18.72892594	     10.67551653	    -19.76167626	     -6.69231681	      2.74155762	     -8.32505714
      2.00000000	      0.31756842	     -2.60346284	     47.02294180	      0.64094944	      0.93748857	      0.84592814	     31.44651459	      2.52932191	      9.79080077	    -44.77580833	     10.31793521	      5.32923053	      0.29026877	     10.23932797	     19.74652022	    -18.49721487	     10.89196143	    -19.80175670	     -6.65796863	      2.65871099	     -8.41600291
      2.01000000	      0.31725361	     -2.56487114	     47.68178635	      0.64618791	      0.93651632	      0.83957795	     31.59637060	      2.66637395	     10.43974572	    -42.34462728	     10.32494396	      5.95656171	     -0.46338965	     10.18788357	     20.29773112	    -18.27508676	     11.06382109	    -19.84918348	     -6.63089545	      2.54516626	     -8.45576702
      2.02000000	      0.30942959	     -2.56878803	     48.37154537	      0.65133018	      0.93536483	      0.83310124	     31.72314318	      2.74206209	     10.92961499	    -39.85344403	     10.28066853	      6.26605156	     -1.15162925	     10.11827649	     20.84915778	    -18.11541147	     11.32615816	    -19.93730874	     -6.56582553	      2.47611005	     -8.57532001
      2.03000000	      0.30991060	     -2.53510309	     49.02034531	      0.65650555	      0.93416046	      0.82653778	     31.75056812	      2.77188769	     11.38583706	    -37.32155542	     10.29879568	      6.63375554	     -1.87854442	     10.06220337	     21.30474046	    -17.95272609	     11.55606649	    -20.01896011	     -6.54469909	      2.38851528	     -8.66248191
      2.04000000	      0.29754560	     -2.51565173	     49.66147844	      0.66166381	      0.93282067	      0.81987262	     31.74127639	      2.76461662	     11.78402725	    -34.77154777	     10.32747708	      6.99192321	     -2.57535460	     10.00467431	     21.69024084	    -17.81385177	     11.80313289	    -20.11035596	     -6.50409628	      2.30871230	     -8.76059946
      2.05000000	      0.28134581	     -2.50301859	     50.30444940	      0.66678710	      0.93137872	      0.81310234	     31.68266462	      2.72598952	     12.14671419	    -32.22151871	     10.35529824	      7.36405281	     -3.25505361	      9.94294930	     22.00781532	    -17.69587720	     12.05939736	    -20.20914741	     -6.45955805	      2.24011578	     -8.87519577
      2.06000000	      0.26126444	     -2.50177965	     50.95092809	      0.67187184	      0.92984362	      0.80623880	     31.57980504	      2.66740921	     12.51687013	    -29.69538940	     10.37880622	      7.78523034	     -3.91325433	      9.87352547	     22.27310789	    -17.59993931	     12.31173171	    -20.30996977	     -6.40907618	      2.18579325	     -8.99976254
